<?xml version="1.0" standalone="no"?>
<!DOCTYPE svg PUBLIC "-//W3C//DTD SVG 20010904//EN"
 "http://www.w3.org/TR/2001/REC-SVG-20010904/DTD/svg10.dtd">
<svg version="1.0" xmlns="http://www.w3.org/2000/svg"
 width="814.000000pt" height="268.000000pt" viewBox="0 0 814.000000 268.000000"
 preserveAspectRatio="xMidYMid meet">

<g transform="translate(0.000000,268.000000) scale(0.100000,-0.100000)"
fill="#000000" stroke="none">
<path d="M2748 2353 c9 -4 10 -8 2 -18 -9 -11 -7 -12 8 -8 11 2 23 0 26 -6 4
-6 1 -9 -7 -5 -8 3 -20 -2 -27 -11 -7 -8 -8 -15 -2 -15 5 0 12 -11 14 -25 3
-14 1 -25 -4 -25 -5 0 -6 -9 -3 -20 4 -12 1 -27 -5 -35 -10 -12 -10 -15 1 -15
11 -1 10 -4 -2 -13 -31 -23 -22 -82 22 -137 120 -152 166 -341 124 -518 -25
-104 -63 -176 -139 -261 -17 -19 -24 -30 -16 -26 12 6 13 5 3 -6 -14 -14 -18
-43 -5 -36 4 3 8 -12 9 -34 2 -25 -2 -39 -10 -39 -8 0 -7 -4 3 -10 10 -6 11
-10 3 -10 -9 0 -10 -7 -5 -22 4 -13 7 -51 6 -85 -1 -35 1 -61 5 -58 4 2 8 -2
8 -10 0 -8 -4 -12 -9 -9 -10 6 -11 -10 -1 -20 11 -10 13 -67 2 -61 -12 8 -11
-6 1 -25 6 -9 5 -17 -3 -22 -9 -6 -8 -8 2 -8 11 0 11 -3 1 -15 -10 -12 -10
-15 1 -15 12 0 12 -2 0 -9 -9 -6 -10 -11 -3 -15 6 -4 8 -14 5 -23 -5 -12 -3
-14 8 -8 12 8 12 6 0 -9 -12 -15 -12 -19 2 -33 14 -15 22 -12 90 26 40 24 108
74 149 112 l76 69 811 0 811 0 0 -48 c0 -142 -85 -294 -225 -400 l-30 -23 145
5 c120 3 160 8 235 30 234 70 416 203 511 372 l35 64 562 2 562 3 70 34 c98
49 217 169 267 271 102 207 105 478 8 671 -69 136 -166 234 -290 293 l-65 31
-1719 3 -1718 2 -51 46 c-29 26 -70 59 -92 74 -45 31 -155 90 -164 89 -3 0 0
-3 7 -6z m1610 -803 c4 0 53 47 109 105 l101 105 81 0 c45 0 81 -3 81 -7 0 -4
-63 -71 -140 -148 l-140 -140 118 -118 c118 -118 119 -118 134 -95 8 13 75
133 149 267 l134 244 145 -6 c168 -6 217 -19 284 -78 156 -137 125 -388 -59
-475 -46 -22 -63 -24 -197 -24 l-148 0 0 40 0 40 -79 0 -80 0 -22 -40 -23 -40
-120 0 -121 0 -102 100 -103 101 0 -101 0 -100 -65 0 -65 0 0 350 0 350 58 29
57 29 3 -194 c1 -107 6 -194 10 -194z m-839 -38 c75 -144 139 -262 142 -262 3
0 27 21 53 47 l47 46 47 -23 c28 -13 73 -25 112 -27 56 -4 69 -2 93 17 57 46
21 80 -98 91 -135 12 -195 64 -195 168 0 114 89 191 220 191 42 0 201 -33 221
-46 5 -3 -12 -29 -38 -58 l-48 -53 -35 15 c-85 36 -200 11 -200 -43 0 -35 33
-52 118 -59 42 -4 90 -15 113 -27 125 -63 109 -253 -26 -305 -70 -26 -199 -16
-298 24 -43 18 -81 32 -83 32 -2 0 2 -13 11 -30 8 -16 15 -31 15 -35 0 -3 -29
-5 -64 -5 -70 0 -84 8 -106 59 l-12 31 -134 0 -134 0 -20 -40 c-20 -39 -22
-40 -73 -40 -28 0 -62 -3 -74 -6 -13 -4 -23 -2 -23 3 0 5 22 50 49 99 26 49
97 182 157 297 60 114 113 206 118 204 5 -2 71 -121 145 -265z m2408 -26 l138
-269 5 281 5 281 139 -149 138 -150 102 107 c56 60 121 128 144 153 l41 45 1
-302 0 -303 -60 0 -59 0 -3 146 -3 146 -80 -91 -80 -91 -40 42 c-22 24 -57 63
-77 88 l-38 45 0 -142 0 -143 -130 0 -130 0 -20 40 -20 40 -135 0 -135 0 -20
-40 -20 -40 -70 0 c-39 0 -70 3 -70 8 0 4 12 27 26 52 14 25 60 110 101 190
174 335 184 353 198 339 7 -8 75 -135 152 -283z"/>
<path d="M5135 1618 c-3 -7 -4 -81 -3 -163 l3 -150 55 -3 c105 -6 178 46 195
139 10 52 -22 120 -72 153 -47 31 -169 48 -178 24z"/>
<path d="M4962 1466 c-23 -40 -42 -76 -42 -80 0 -3 20 -6 45 -6 l45 0 0 80 c0
44 -1 80 -3 80 -2 0 -22 -33 -45 -74z"/>
<path d="M3334 1463 c-16 -37 -30 -71 -32 -75 -2 -4 29 -8 68 -8 39 0 70 4 68
8 -18 47 -64 142 -69 142 -3 0 -19 -30 -35 -67z"/>
<path d="M5725 1460 c-19 -38 -35 -74 -35 -80 0 -6 30 -10 75 -10 45 0 75 4
75 10 0 13 -69 150 -75 150 -3 0 -21 -31 -40 -70z"/>
<path d="M2308 1815 c18 -13 22 -26 22 -66 0 -93 -53 -147 -130 -134 -41 7
-55 18 -63 50 -2 11 -5 -3 -6 -31 -2 -102 84 -184 196 -184 58 0 98 23 146 83
42 52 48 134 15 191 -37 63 -88 98 -150 103 -51 5 -52 4 -30 -12z"/>
</g>
</svg>
